<svg width="387" height="317" viewBox="0 0 387 317" fill="none" xmlns="http://www.w3.org/2000/svg">
<path d="M378.436 5.09932C240.02 49.8641 106.544 26.6931 48.1152 6.7599C46.0555 6.05723 44.1755 9.01204 45.5195 10.7238C87.6244 64.3524 39.3601 157.57 5.39473 203.739C4.22603 205.328 5.85813 207.56 7.75971 207.037C93.2996 183.511 154.064 263.865 175.583 310.815C176.223 312.213 178.132 312.396 179.082 311.187C222.843 255.512 305.2 244.418 349.164 245.899C351.32 245.971 352.354 242.611 350.65 241.288C294.437 197.627 344.957 71.8514 380.878 7.99801C381.782 6.3921 380.189 4.53233 378.436 5.09932Z" fill="white" stroke="black" stroke-width="10"/>
<path d="M198.355 100.939V192.715H185.555V100.939H198.355ZM184.019 208.715C184.019 210.934 184.829 212.854 186.451 214.475C188.072 216.096 189.992 216.907 192.211 216.907C194.429 216.907 196.349 216.096 197.971 214.475C199.592 212.854 200.403 210.934 200.403 208.715C200.403 206.496 199.592 204.576 197.971 202.955C196.349 201.334 194.429 200.523 192.211 200.523C189.992 200.523 188.072 201.334 186.451 202.955C184.829 204.576 184.019 206.496 184.019 208.715Z" fill="#FF0004"/>
</svg>
